<?xml version="1.0" encoding="UTF-8"?>
<svg width="120px" height="120px" viewBox="0 0 120 120" version="1.1" xmlns="http://www.w3.org/2000/svg" xmlns:xlink="http://www.w3.org/1999/xlink">
    <!-- Generator: Sketch 52.2 (67145) - http://www.bohemiancoding.com/sketch -->
    <title>mix-bowl-white</title>
    <desc>Created with Sketch.</desc>
    <g id="mix-bowl-white" stroke="none" stroke-width="1" fill="none" fill-rule="evenodd">
        <path d="M59.6322483,52.2083137 C55.7094416,52.2083137 51.627212,52.3676738 47.7044053,52.5209143 L48.9609273,56.9157132 C52.4117419,56.7563531 55.8625566,56.6031126 59.6322169,56.6031126 C91.7992321,56.6031126 112.357878,63.8235875 112.357878,68.684102 C112.357878,73.5508929 91.7992321,80.7650914 59.6322169,80.7650914 L58.6882955,80.7650914 C58.3756948,79.0365458 58.0630942,77.3142768 57.4317734,75.4325848 C54.9186665,67.7463942 50.0581521,62.095042 45.5039304,60.9979114 L26.5144076,2.31586103 C25.8892063,0.587315471 24.0013007,-0.350392249 22.2790316,0.121599857 C20.550486,0.746801101 19.6127783,2.63470676 20.0847704,4.35697582 L39.2327746,63.1928002 C36.5665213,66.4904684 35.78196,72.7669592 37.5042291,79.6685884 C18.2024509,77.4743273 6.74628609,72.4481135 6.74628609,68.8441525 C6.74628609,65.5464842 16.1610222,61.1579619 32.3245551,58.644855 L31.2273931,54.2500562 C14.5915543,56.7631631 2.19862333,61.6236775 2.19862333,68.8441525 C2.19862333,69.6287138 2.35798343,70.572698 2.67058405,71.3572594 L2.67058405,71.5166195 L3.4551454,75.2800033 C8.94707481,100.225916 13.1824508,120 59.3190514,120 C105.608171,120 110.003283,99.4413545 115.647418,73.2385747 L116.119378,71.3568828 C116.431979,70.5723214 116.591339,69.7877601 116.591339,69.0031988 C116.90394,57.8537975 88.0348753,52.2088786 59.6306164,52.2088786 L59.6322483,52.2083137 Z M59.6322483,115.285477 C18.6750078,115.285477 13.8154349,100.066242 8.63576087,76.8419708 C18.6756355,82.4933231 39.2336533,85.4721456 59.6322483,85.4721456 C80.0308433,85.4721456 100.589489,82.4933231 110.628736,76.8419708 C105.449376,100.066556 99.8042997,115.285477 59.6322483,115.285477 Z M35.9353574,8.58513382 L35.9358909,8.58547903 C34.8386662,8.7386254 33.5821441,7.95407975 33.4289036,6.86917263 C33.2694807,5.76582832 34.0540735,4.51542583 35.3105955,4.35606573 L37.3517103,4.04346511 C44.8850684,2.94630314 53.0432511,2.47434242 61.3608566,2.47434242 C89.4450145,2.47434242 119.258346,9.06340242 119.258346,21.3038147 C119.258346,27.1083134 112.662381,31.9751043 100.268823,35.4259189 C100.1094,35.4259189 94.7768934,36.995073 88.3409798,37.4670337 L93.52034,40.2927098 C94.6236215,40.7584255 95.0894627,42.1743704 94.4642614,43.2715324 C93.9922693,43.8967336 93.207708,44.3686943 92.4231466,44.3686943 C91.9511859,44.3686943 91.6385853,44.2154538 91.3259846,44.0560937 L77.0444576,36.2104802 L90.0694312,26.323752 C91.0134154,25.5391907 92.4231152,25.8517913 93.2076766,26.7957127 C93.8328778,27.7396969 93.6796373,29.1493968 92.7357159,29.9339581 L89.1254784,32.6002114 C94.6174078,32.1281879 99.0122066,30.8716658 99.0122066,30.8716658 C110.781254,27.5739976 114.863484,23.6511909 114.863484,20.9849376 C114.863484,15.0210161 94.4648891,6.70341051 61.3532621,6.70341051 C53.195707,6.70341051 45.3500936,7.32861175 37.9764722,8.2725332 L35.9353574,8.58513382 Z M15.0723021,31.6496682 L15.0721295,31.6494643 C14.7534093,31.6494643 14.6001688,31.6494643 14.4346734,31.643329 C4.86679093,28.8239293 7.10542736e-15,25.2136918 7.10542736e-15,20.818893 C7.10542736e-15,16.5835171 4.5479452,13.1327024 13.6501121,10.3070263 C14.9066656,9.83509696 16.1631876,10.4602668 16.4757882,11.7167889 C16.9477176,12.9733423 16.3225477,14.2298644 15.0660257,14.542465 C6.7484201,17.0555719 4.55415893,19.7217938 4.55415893,20.8189558 C4.55415893,21.9223629 6.90784296,24.7417625 15.6974406,27.2548694 C16.9539627,27.5674386 17.5791639,28.8240235 17.2665633,30.0805455 C16.9539941,31.024467 16.0162236,31.6496682 15.0723021,31.6496682 Z" id="Combined-Shape" fill="#FFFFFF"></path>
    </g>
</svg>