<?xml version="1.0" encoding="UTF-8"?>
<svg width="341px" height="132px" viewBox="0 0 341 132" version="1.1" xmlns="http://www.w3.org/2000/svg" xmlns:xlink="http://www.w3.org/1999/xlink">
    <!-- Generator: Sketch 52.2 (67145) - http://www.bohemiancoding.com/sketch -->
    <title>Group 2</title>
    <desc>Created with Sketch.</desc>
    <defs>
        <rect id="path-1" x="107" y="10" width="56" height="112"></rect>
        <filter x="-0.9%" y="-0.4%" width="101.8%" height="100.9%" filterUnits="objectBoundingBox" id="filter-2">
            <feOffset dx="-1" dy="0" in="SourceAlpha" result="shadowOffsetInner1"></feOffset>
            <feComposite in="shadowOffsetInner1" in2="SourceAlpha" operator="arithmetic" k2="-1" k3="1" result="shadowInnerInner1"></feComposite>
            <feColorMatrix values="0 0 0 0 1   0 0 0 0 1   0 0 0 0 1  0 0 0 1 0" type="matrix" in="shadowInnerInner1"></feColorMatrix>
        </filter>
        <path d="M55,10 L107,10 L107,122 L55,122 C52.790861,122 51,120.209139 51,118 L51,14 C51,11.790861 52.790861,10 55,10 Z" id="path-3"></path>
        <filter x="-0.9%" y="-0.4%" width="101.8%" height="100.9%" filterUnits="objectBoundingBox" id="filter-4">
            <feOffset dx="-1" dy="0" in="SourceAlpha" result="shadowOffsetInner1"></feOffset>
            <feComposite in="shadowOffsetInner1" in2="SourceAlpha" operator="arithmetic" k2="-1" k3="1" result="shadowInnerInner1"></feComposite>
            <feColorMatrix values="0 0 0 0 1   0 0 0 0 1   0 0 0 0 1  0 0 0 1 0" type="matrix" in="shadowInnerInner1"></feColorMatrix>
        </filter>
        <rect id="path-5" x="163" y="10" width="56" height="112"></rect>
        <filter x="-0.9%" y="-0.4%" width="101.8%" height="100.9%" filterUnits="objectBoundingBox" id="filter-6">
            <feOffset dx="-1" dy="0" in="SourceAlpha" result="shadowOffsetInner1"></feOffset>
            <feComposite in="shadowOffsetInner1" in2="SourceAlpha" operator="arithmetic" k2="-1" k3="1" result="shadowInnerInner1"></feComposite>
            <feColorMatrix values="0 0 0 0 1   0 0 0 0 1   0 0 0 0 1  0 0 0 1 0" type="matrix" in="shadowInnerInner1"></feColorMatrix>
        </filter>
        <rect id="path-7" x="219" y="10" width="56" height="112"></rect>
        <filter x="-0.9%" y="-0.4%" width="101.8%" height="100.9%" filterUnits="objectBoundingBox" id="filter-8">
            <feOffset dx="-1" dy="0" in="SourceAlpha" result="shadowOffsetInner1"></feOffset>
            <feComposite in="shadowOffsetInner1" in2="SourceAlpha" operator="arithmetic" k2="-1" k3="1" result="shadowInnerInner1"></feComposite>
            <feColorMatrix values="0 0 0 0 1   0 0 0 0 1   0 0 0 0 1  0 0 0 1 0" type="matrix" in="shadowInnerInner1"></feColorMatrix>
        </filter>
    </defs>
    <g id="V5.5" stroke="none" stroke-width="1" fill="none" fill-rule="evenodd">
        <g id="shade-colors" transform="translate(-125.000000, -502.000000)">
            <g id="Group-2" transform="translate(125.000000, 502.000000)">
                <text id="15" font-family="Eczar-Regular, Eczar" font-size="26" font-weight="normal" fill="#FFFFFF">
                    <tspan x="0.098" y="72">15</tspan>
                </text>
                <path d="M45,2.98427949e-13 L337,2.98427949e-13 C339.209139,2.98022137e-13 341,1.790861 341,4 L341,128 C341,130.209139 339.209139,132 337,132 L45,132 C42.790861,132 41,130.209139 41,128 L41,4 C41,1.790861 42.790861,2.98833761e-13 45,2.98427949e-13 Z" id="Rectangle" fill="#FFFFFF"></path>
                <g id="Rectangle-Copy-6">
                    <use fill="#109954" fill-rule="evenodd" xlink:href="#path-1"></use>
                    <use fill="black" fill-opacity="1" filter="url(#filter-2)" xlink:href="#path-1"></use>
                </g>
                <g id="Rectangle-Copy">
                    <use fill="#0C723F" fill-rule="evenodd" xlink:href="#path-3"></use>
                    <use fill="black" fill-opacity="1" filter="url(#filter-4)" xlink:href="#path-3"></use>
                </g>
                <g id="Rectangle-Copy-7">
                    <use fill="#15BF6A" fill-rule="evenodd" xlink:href="#path-5"></use>
                    <use fill="black" fill-opacity="1" filter="url(#filter-6)" xlink:href="#path-5"></use>
                </g>
                <polygon id="Triangle" fill="#FFFFFF" points="191 20 201 10 181 10"></polygon>
                <g id="Rectangle-Copy-8">
                    <use fill="#19E57F" fill-rule="evenodd" xlink:href="#path-7"></use>
                    <use fill="black" fill-opacity="1" filter="url(#filter-8)" xlink:href="#path-7"></use>
                </g>
                <path d="M275,10 L327,10 C329.209139,10 331,11.790861 331,14 L331,118 C331,120.209139 329.209139,122 327,122 L275,122 L275,10 Z" id="Rectangle-Copy-9" fill="#1CFF8D"></path>
            </g>
        </g>
    </g>
</svg>