<?xml version="1.0" encoding="UTF-8"?>
<svg width="10px" height="18px" viewBox="0 0 10 18" version="1.1" xmlns="http://www.w3.org/2000/svg" xmlns:xlink="http://www.w3.org/1999/xlink">
    <!-- Generator: Sketch 51.1 (57501) - http://www.bohemiancoding.com/sketch -->
    <title>question?</title>
    <desc>Created with Sketch.</desc>
    <defs></defs>
    <g id="V5.5" stroke="none" stroke-width="1" fill="none" fill-rule="evenodd">
        <g id="rangi-loading" transform="translate(-1367.000000, -41.000000)">
            <g id="header">
                <g id="question-light" transform="translate(1353.000000, 35.000000)">
                    <rect id="Rectangle-12" fill="#FFFFFF" opacity="0" x="0" y="0" width="38" height="30" rx="4"></rect>
                    <path d="M19.1654817,6.0375 C20.5215929,6.0375 21.655854,6.46293053 22.5682991,7.31380435 C23.4807443,8.16467817 23.93696,9.20140693 23.93696,10.4240217 C23.93696,11.5309838 23.4765588,12.5057567 22.5557426,13.3483696 L20.5718122,15.033587 C19.9356119,15.6283725 19.6175165,16.2479316 19.6175165,16.8922826 L17.58336,16.8922826 C17.58336,16.1818443 17.7298513,15.5416333 18.0228383,14.9716304 C18.3158252,14.4016276 18.9017904,13.7779382 19.7807513,13.1005435 C20.6597122,12.4231488 21.2373064,11.8738065 21.5135513,11.4525 C21.7897962,11.0311935 21.9279165,10.5314159 21.9279165,9.95315217 C21.9279165,8.97836469 21.50937,8.17706836 20.6722643,7.54923913 C19.433348,7.46663002 18.1274828,7.82184386 16.7546296,8.6148913 L16.5034991,11.1179348 L15.0720557,11.1179348 L14.69536,7.62358696 C16.1016975,6.56619037 17.5917231,6.0375 19.1654817,6.0375 Z M18.9394643,19.5688043 C20.0277017,19.9488062 20.6387796,20.5435829 20.7727165,21.3531522 C20.5215848,22.1792433 20.0109581,22.7740199 19.2408209,23.1375 C18.3200047,22.95576 17.6838139,22.451852 17.3322296,21.6257609 C17.4829086,20.7170607 18.0186481,20.0314154 18.9394643,19.5688043 Z" id="what’s-this?" fill="#333333"></path>
                </g>
            </g>
        </g>
    </g>
</svg>