<?xml version="1.0" encoding="UTF-8"?>
<svg width="120px" height="120px" viewBox="0 0 120 120" version="1.1" xmlns="http://www.w3.org/2000/svg" xmlns:xlink="http://www.w3.org/1999/xlink">
    <!-- Generator: Sketch 51.1 (57501) - http://www.bohemiancoding.com/sketch -->
    <title>Combined Shape</title>
    <desc>Created with Sketch.</desc>
    <defs></defs>
    <g id="V5.5" stroke="none" stroke-width="1" fill="none" fill-rule="evenodd">
        <g id="rangi-picker-intro" transform="translate(-660.000000, -252.000000)" fill="#333333">
            <path d="M719.632248,304.208314 C715.709442,304.208314 711.627212,304.367674 707.704405,304.520914 L708.960927,308.915713 C712.411742,308.756353 715.862557,308.603113 719.632217,308.603113 C751.799232,308.603113 772.357878,315.823588 772.357878,320.684102 C772.357878,325.550893 751.799232,332.765091 719.632217,332.765091 L718.688295,332.765091 C718.375695,331.036546 718.063094,329.314277 717.431773,327.432585 C714.918666,319.746394 710.058152,314.095042 705.50393,312.997911 L686.514408,254.315861 C685.889206,252.587315 684.001301,251.649608 682.279032,252.1216 C680.550486,252.746801 679.612778,254.634707 680.08477,256.356976 L699.232775,315.1928 C696.566521,318.490468 695.78196,324.766959 697.504229,331.668588 C678.202451,329.474327 666.746286,324.448113 666.746286,320.844152 C666.746286,317.546484 676.161022,313.157962 692.324555,310.644855 L691.227393,306.250056 C674.591554,308.763163 662.198623,313.623678 662.198623,320.844152 C662.198623,321.628714 662.357983,322.572698 662.670584,323.357259 L662.670584,323.516619 L663.455145,327.280003 C668.947075,352.225916 673.182451,372 719.319051,372 C765.608171,372 770.003283,351.441355 775.647418,325.238575 L776.119378,323.356883 C776.431979,322.572321 776.591339,321.78776 776.591339,321.003199 C776.90394,309.853797 748.034875,304.208879 719.630616,304.208879 L719.632248,304.208314 Z M719.632248,367.285477 C678.675008,367.285477 673.815435,352.066242 668.635761,328.841971 C678.675635,334.493323 699.233653,337.472146 719.632248,337.472146 C740.030843,337.472146 760.589489,334.493323 770.628736,328.841971 C765.449376,352.066556 759.8043,367.285477 719.632248,367.285477 Z M695.935357,260.585134 L695.935891,260.585479 C694.838666,260.738625 693.582144,259.95408 693.428904,258.869173 C693.269481,257.765828 694.054073,256.515426 695.310596,256.356066 L697.35171,256.043465 C704.885068,254.946303 713.043251,254.474342 721.360857,254.474342 C749.445015,254.474342 779.258346,261.063402 779.258346,273.303815 C779.258346,279.108313 772.662381,283.975104 760.268823,287.425919 C760.1094,287.425919 754.776893,288.995073 748.34098,289.467034 L753.52034,292.29271 C754.623622,292.758425 755.089463,294.17437 754.464261,295.271532 C753.992269,295.896734 753.207708,296.368694 752.423147,296.368694 C751.951186,296.368694 751.638585,296.215454 751.325985,296.056094 L737.044458,288.21048 L750.069431,278.323752 C751.013415,277.539191 752.423115,277.851791 753.207677,278.795713 C753.832878,279.739697 753.679637,281.149397 752.735716,281.933958 L749.125478,284.600211 C754.617408,284.128188 759.012207,282.871666 759.012207,282.871666 C770.781254,279.573998 774.863484,275.651191 774.863484,272.984938 C774.863484,267.021016 754.464889,258.703411 721.353262,258.703411 C713.195707,258.703411 705.350094,259.328612 697.976472,260.272533 L695.935357,260.585134 Z M675.072302,283.649668 L675.07213,283.649464 C674.753409,283.649464 674.600169,283.649464 674.434673,283.643329 C664.866791,280.823929 660,277.213692 660,272.818893 C660,268.583517 664.547945,265.132702 673.650112,262.307026 C674.906666,261.835097 676.163188,262.460267 676.475788,263.716789 C676.947718,264.973342 676.322548,266.229864 675.066026,266.542465 C666.74842,269.055572 664.554159,271.721794 664.554159,272.818956 C664.554159,273.922363 666.907843,276.741763 675.697441,279.254869 C676.953963,279.567439 677.579164,280.824023 677.266563,282.080546 C676.953994,283.024467 676.016224,283.649668 675.072302,283.649668 Z" id="Combined-Shape"></path>
        </g>
    </g>
</svg>