<?xml version="1.0" encoding="UTF-8"?>
<svg width="200px" height="200px" viewBox="0 0 200 200" version="1.1" xmlns="http://www.w3.org/2000/svg" xmlns:xlink="http://www.w3.org/1999/xlink">
    <!-- Generator: Sketch 51.1 (57501) - http://www.bohemiancoding.com/sketch -->
    <title>ice_1</title>
    <desc>Created with Sketch.</desc>
    <defs>
        <polygon id="path-1" points="0 0.084 56.42 0.084 56.42 108 0 108"></polygon>
    </defs>
    <g id="ice_1" stroke="none" stroke-width="1" fill="none" fill-rule="evenodd">
        <path d="M100,199.5 C154.952333,199.5 199.5,154.952333 199.5,100 C199.5,45.0476674 154.952333,0.5 100,0.5 C45.0476674,0.5 0.5,45.0476674 0.5,100 C0.5,154.952333 45.0476674,199.5 100,199.5 Z" id="Oval-1" stroke="#FECBA2" fill="#FFF0E4"></path>
        <g id="Page-1-Copy-11" transform="translate(72.000000, 28.000000)">
            <path d="M53.6935,48.2051 L44.6865,69.7991 C44.4695,68.2481 43.9875,66.7111 43.2435,65.1961 C40.9355,60.4991 36.3465,56.5011 31.1625,53.2321 C43.1065,46.4861 50.6815,44.5151 50.7715,44.4921 C52.3765,44.0631 53.6305,44.1741 54.1295,44.7901 C54.6285,45.4061 54.4775,46.6571 53.6935,48.2051" id="Fill-1" fill="#FFD4B6"></path>
            <path d="M21.2413,17.1665 C24.1893,17.1665 27.0823,17.9535 29.6083,19.4415 C30.0833,19.7245 30.6973,19.5645 30.9773,19.0885 C31.2583,18.6125 31.0993,17.9995 30.6233,17.7195 C28.3993,16.4085 25.9203,15.5905 23.3583,15.2955 C22.6103,11.4165 23.0203,8.2575 24.6113,5.9135 C26.0663,3.7695 28.2043,2.7785 29.4743,2.3545 C30.0343,6.2715 33.1293,9.4525 36.8893,9.9365 C36.9983,9.9775 37.1173,9.9995 37.2413,9.9995 C46.4933,9.9995 53.7413,17.0645 53.7413,26.0835 C53.7413,29.1975 52.8723,32.0985 51.1653,34.7335 C48.2813,30.2535 43.2503,27.3305 37.4703,27.3305 C33.1243,27.3305 29.0393,29.0205 25.9663,32.0935 C25.5753,32.4845 25.5753,33.1115 25.9663,33.5025 C26.3573,33.8925 26.9903,33.8825 27.3803,33.4915 C30.0753,30.7975 33.6593,29.2915 37.4703,29.2915 C42.9993,29.2915 47.7503,32.3535 50.1233,36.9095 C50.1553,37.0135 50.2023,37.1095 50.2693,37.1995 C51.0323,38.7505 51.5103,40.4675 51.6663,42.2895 C51.2363,42.3395 50.7803,42.4155 50.2673,42.5525 C49.9313,42.6375 41.9653,44.6985 29.2033,52.0375 C20.6743,47.0755 11.1513,44.0035 7.6133,42.9555 C6.7503,41.6915 6.0613,40.3235 5.5793,38.8745 C5.0233,37.2015 4.7413,35.4485 4.7413,33.6665 C4.7413,24.5685 12.1433,17.1665 21.2413,17.1665" id="Fill-3" fill="#C78F63"></path>
            <path d="M30.6236,17.7192 C26.7076,14.7502 22.8746,9.2082 26.3116,4.0722 L24.0936,4.7812 L21.9996,8.9582 L21.9996,14.0002 L22.7076,15.8332 L28.7916,18.0002 L30.6236,17.7192 Z" id="Fill-5" fill="#AB6B39"></path>
            <path d="M25.9664,32.0934 C41.6244,19.7504 53.3154,29.7504 53.3154,29.7504 L53.7414,33.0624 L51.2494,35.8754 L45.7494,30.9004 L38.8124,28.5624 L33.1244,28.7504 L25.9664,32.0934 Z" id="Fill-7" fill="#AB6B39"></path>
            <path d="M5.5,40.8819 C15.238,40.9719 19.08,46.7359 28.907,46.7359 C38.734,46.7359 43.19,39.6249 52.065,38.4999 L52.567,42.2299 L32.577,51.3329 L29.244,53.2319 L18.15,47.9959 L7.896,44.2479 L6.252,43.3899 L5.5,40.8819 Z" id="Fill-9" fill="#AB6B39"></path>
            <path d="M41.7355,77 L30.4745,103.809 C29.7055,105.323 28.7265,106 27.7865,106 L27.7765,106 C26.8335,106 25.8605,105.24 25.1385,103.778 L2.6685,48.196 C1.9345,46.705 1.8045,45.44 2.3195,44.814 C2.6285,44.439 3.2065,44.248 3.9665,44.248 C4.4745,44.248 5.0635,44.364 5.7065,44.538 C5.9955,44.615 34.7415,52.494 41.4485,66.141 C43.1675,69.638 43.2635,73 41.7345,77 L41.7355,77 Z" id="Fill-11" fill="#FFD4B6"></path>
            <path d="M55.7413,26.0835 C55.7413,16.2145 48.0433,8.4265 38.0683,8.0175 C38.0083,8.0055 37.9473,8.0005 37.8843,8.0005 C34.4213,8.0005 31.3843,4.7685 31.3843,1.0835 C31.3843,0.7915 31.2563,0.5145 31.0353,0.3245 C30.8143,0.1355 30.5213,0.0525 30.2323,0.0955 C30.0473,0.1235 25.6573,0.8355 22.9743,4.7635 C21.1333,7.4595 20.5823,10.9605 21.3013,15.1685 C21.2813,15.1685 21.2613,15.1665 21.2413,15.1665 C11.0403,15.1665 2.7413,23.4655 2.7413,33.6665 C2.7413,35.6635 3.0573,37.6275 3.6823,39.5055 C4.2633,41.2535 5.1023,42.9025 6.1773,44.4075 C6.3723,44.6815 6.6793,44.8265 6.9913,44.8265 C7.1933,44.8265 7.3953,44.7665 7.5723,44.6405 C8.0213,44.3195 8.1253,43.6945 7.8043,43.2455 C6.8463,41.9035 6.0973,40.4335 5.5793,38.8755 C5.0233,37.2015 4.7413,35.4485 4.7413,33.6665 C4.7413,24.5685 12.1433,17.1665 21.2413,17.1665 C24.1893,17.1665 27.0823,17.9535 29.6083,19.4415 C30.0833,19.7245 30.6973,19.5645 30.9773,19.0885 C31.2583,18.6125 31.0993,17.9995 30.6233,17.7195 C28.3993,16.4085 25.9203,15.5905 23.3583,15.2955 C22.6103,11.4165 23.0203,8.2575 24.6113,5.9135 C26.0663,3.7695 28.2043,2.7785 29.4743,2.3545 C30.0343,6.2715 33.1293,9.4525 36.8893,9.9365 C36.9983,9.9775 37.1173,10.0005 37.2413,10.0005 C46.4933,10.0005 53.7413,17.0645 53.7413,26.0835 C53.7413,29.1975 52.8723,32.0985 51.1653,34.7335 C48.2813,30.2535 43.2503,27.3305 37.4703,27.3305 C33.1243,27.3305 29.0393,29.0205 25.9663,32.0935 C25.5753,32.4845 25.5753,33.1115 25.9663,33.5025 C26.3573,33.8925 26.9903,33.8825 27.3803,33.4915 C30.0753,30.7975 33.6593,29.2915 37.4703,29.2915 C42.9993,29.2915 47.7503,32.3535 50.1233,36.9095 C50.1553,37.0135 50.2023,37.1095 50.2693,37.1995 C51.1463,38.9835 51.6753,40.9785 51.7353,43.1115 C51.7503,43.6545 52.1943,44.0005 52.7343,44.0005 L52.7623,44.0005 C53.3143,44.0005 53.7493,43.6065 53.7343,43.0545 C53.6703,40.7665 53.1383,38.6155 52.2443,36.6785 C54.5553,33.4955 55.7413,29.9385 55.7413,26.0835" id="Fill-13" fill="#664225"></path>
            <path d="M36.8671,77.8621 L32.5741,73.5691 L36.8671,69.2761 L41.1601,73.5691 L36.8671,77.8621 Z M31.8671,82.8621 L27.5741,78.5691 L31.8671,74.2761 L36.1601,78.5691 L31.8671,82.8621 Z M36.1601,88.5691 L31.8671,92.8621 L27.5741,88.5691 L31.8671,84.2761 L36.1601,88.5691 Z M26.8671,97.8621 L22.5741,93.5691 L26.8671,89.2761 L31.1601,93.5691 L26.8671,97.8621 Z M22.5741,83.5691 L26.8671,79.2761 L31.1601,83.5691 L26.8671,87.8621 L22.5741,83.5691 Z M17.5741,78.5691 L21.8671,74.2761 L26.1601,78.5691 L21.8671,82.8621 L17.5741,78.5691 Z M12.5741,73.5691 L16.8671,69.2761 L21.1601,73.5691 L16.8671,77.8621 L12.5741,73.5691 Z M12.5741,63.5691 L16.8671,59.2761 L21.1601,63.5691 L16.8671,67.8621 L12.5741,63.5691 Z M7.5741,58.5691 L11.8671,54.2761 L16.1601,58.5691 L11.8671,62.8621 L7.5741,58.5691 Z M16.8671,49.2761 L21.1601,53.5691 L16.8671,57.8621 L12.5741,53.5691 L16.8671,49.2761 Z M26.1601,58.5691 L21.8671,62.8621 L17.5741,58.5691 L21.8671,54.2761 L26.1601,58.5691 Z M31.1601,63.5691 L26.8671,67.8621 L22.5741,63.5691 L26.8671,59.2761 L31.1601,63.5691 Z M21.8671,72.8621 L17.5741,68.5691 L21.8671,64.2761 L26.1601,68.5691 L21.8671,72.8621 Z M26.8671,69.2761 L31.1601,73.5691 L26.8671,77.8621 L22.5741,73.5691 L26.8671,69.2761 Z M36.1601,68.5691 L31.8671,72.8621 L27.5741,68.5691 L31.8671,64.2761 L36.1601,68.5691 Z M43.6731,71.0561 L41.8671,72.8621 L37.5741,68.5691 L41.9631,64.1801 L41.2561,63.4731 L36.8671,67.8621 L32.5741,63.5691 L37.2211,58.9221 L36.5141,58.2151 L31.8671,62.8621 L27.5741,58.5691 L31.4151,54.7281 L30.7081,54.0211 L26.8671,57.8621 L22.5741,53.5691 L25.0281,51.1151 L24.3211,50.4081 L21.8671,52.8621 L17.5741,48.5691 L18.1471,47.9961 L17.4401,47.2891 L16.8671,47.8621 L15.0961,46.0911 L14.3891,46.7981 L16.1601,48.5691 L11.8671,52.8621 L7.5741,48.5691 L10.8521,45.2911 L10.1451,44.5841 L6.8671,47.8621 L2.3951,43.3901 L1.6881,44.0971 L6.1601,48.5691 L2.8911,51.8381 L3.5981,52.5451 L6.8671,49.2761 L11.1601,53.5691 L6.8671,57.8621 L5.3901,56.3851 L4.6831,57.0921 L6.1601,58.5691 L5.7361,58.9931 L6.4431,59.7001 L6.8671,59.2761 L11.1601,63.5691 L8.6101,66.1191 L9.3171,66.8261 L11.8671,64.2761 L16.1601,68.5691 L11.5141,73.2151 L11.7991,73.5001 L11.4451,73.8541 L16.1601,78.5691 L14.3361,80.3931 L15.0431,81.1011 L16.8671,79.2761 L21.1601,83.5691 L17.4401,87.2891 L18.1471,87.9961 L21.8671,84.2761 L26.1601,88.5691 L21.8671,92.8621 L18.9121,89.9071 L18.2051,90.6141 L21.1601,93.5691 L20.1061,94.6231 L20.8131,95.3301 L21.8671,94.2761 L26.1601,98.5691 L22.9801,101.7491 L23.6871,102.4561 L26.8671,99.2761 L31.3861,103.7951 L32.0931,103.0881 L27.5741,98.5691 L31.8671,94.2761 L34.3251,96.7341 L35.0321,96.0271 L32.5741,93.5691 L36.8671,89.2761 L37.2711,89.6801 L37.9781,88.9731 L37.5741,88.5691 L39.0611,87.0821 L38.3541,86.3751 L36.8671,87.8621 L32.5741,83.5691 L36.8671,79.2761 L40.2141,82.6231 L40.9211,81.9161 L37.5741,78.5691 L41.8671,74.2761 L43.0301,75.4391 L43.7371,74.7321 L42.5741,73.5691 L44.3801,71.7631 L43.6731,71.0561 Z" id="Fill-15" fill="#BF9F89"></path>
            <path d="M44.8671,54.8621 L40.5741,50.5691 L44.8671,46.2761 L49.1601,50.5691 L44.8671,54.8621 Z M55.6931,45.4501 L54.9861,44.7431 L49.8671,49.8621 L45.1501,45.1451 L44.7971,45.4991 L44.5141,45.2151 L39.8671,49.8621 L38.2331,48.2281 L37.5261,48.9351 L39.1601,50.5691 L33.6671,56.0621 L34.3741,56.7691 L39.8671,51.2761 L44.1601,55.5691 L38.9231,60.8061 L39.6301,61.5131 L44.8671,56.2761 L49.3381,60.7471 L50.0451,60.0401 L45.5741,55.5691 L49.8671,51.2761 L52.2791,53.6881 L52.9861,52.9811 L50.5741,50.5691 L55.6931,45.4501 Z" id="Fill-17" fill="#BF9F89"></path>
            <polygon id="Fill-19" fill="#BF9F89" points="42.7154 67.0137 43.4224 67.7207 49.7954 61.3477 49.0884 60.6407"></polygon>
            <path d="M22.16,18.9375 C13.437,18.8935 8.562,24.6245 7.437,29.9375 C6.221,35.6805 9.917,32.5995 13.875,24.8125 C17.083,18.5005 26.355,18.9585 22.16,18.9375" id="Fill-21" fill="#FFFFFF"></path>
            <path d="M31.165022,53.2319 L30.710022,54.0219 L35.877022,57.7499 L39.633022,61.5129 L41.961022,64.7919 L43.502022,68.8749 C43.502022,68.8749 43.393022,72.8509 44.689022,69.7989 C45.682022,67.4629 47.674022,62.6439 47.674022,62.6439 C47.674022,62.6439 44.163022,55.5689 31.165022,53.2319" id="Fill-23" fill-opacity="0.2" fill="#000000"></path>
            <g id="Group-27">
                <mask id="mask-2" fill="white">
                    <use xlink:href="#path-1"></use>
                </mask>
                <g id="Clip-26"></g>
                <path d="M53.6935,48.2051 L44.6865,69.7991 C44.4695,68.2481 43.9875,66.7111 43.2435,65.1961 C40.9355,60.4991 36.3465,56.5011 31.1625,53.2321 C43.1065,46.4861 50.6815,44.5151 50.7715,44.4921 C52.3765,44.0631 53.6305,44.1741 54.1295,44.7901 C54.6285,45.4061 54.4775,46.6571 53.6935,48.2051 L53.6935,48.2051 Z M41.7355,77.0001 L30.4745,103.8091 C29.7055,105.3231 28.7265,106.0001 27.7865,106.0001 L27.7765,106.0001 C26.8335,106.0001 25.8605,105.2401 25.1385,103.7781 L2.6685,48.1961 C1.9345,46.7051 1.8045,45.4401 2.3195,44.8141 C2.6285,44.4391 3.2065,44.2471 3.9665,44.2471 C4.4745,44.2471 5.0635,44.3641 5.7065,44.5381 C5.9955,44.6151 34.7415,52.4941 41.4485,66.1411 C43.1675,69.6381 43.2635,73.0001 41.7345,77.0001 L41.7355,77.0001 Z M55.6835,43.5291 C55.0805,42.7851 53.5725,41.6671 50.2675,42.5531 C49.9315,42.6381 41.9645,44.6981 29.2035,52.0381 C18.8395,46.0081 6.9985,42.7661 6.2255,42.5591 C2.9145,41.6661 1.3885,42.7661 0.7755,43.5111 C0.1615,44.2571 -0.6405,45.9351 0.8435,48.9481 L23.3145,104.5931 C24.4285,106.8611 26.0085,108.0001 27.7625,108.0001 L27.7875,108.0001 C29.5315,108.0001 31.1185,106.8941 32.2895,104.5841 L43.5785,77.6441 L43.5795,77.6441 C43.6075,77.5791 43.6335,77.5131 43.6605,77.4471 L55.5075,49.0421 C57.0645,45.9791 56.2855,44.2731 55.6835,43.5291 L55.6835,43.5291 Z" id="Fill-25" fill="#6B594D" mask="url(#mask-2)"></path>
            </g>
        </g>
        <text id="Chocolate" font-family="Eczar-Regular, Eczar" font-size="18" font-weight="normal" line-spacing="27" fill="#664225">
            <tspan x="63" y="167">Chocolate</tspan>
        </text>
    </g>
</svg>