<?xml version="1.0" encoding="UTF-8"?>
<svg width="16px" height="16px" viewBox="0 0 16 16" version="1.1" xmlns="http://www.w3.org/2000/svg" xmlns:xlink="http://www.w3.org/1999/xlink">
    <!-- Generator: Sketch 51.1 (57501) - http://www.bohemiancoding.com/sketch -->
    <title>Page 1</title>
    <desc>Created with Sketch.</desc>
    <defs></defs>
    <g id="V5.5" stroke="none" stroke-width="1" fill="none" fill-rule="evenodd">
        <g id="rangi-loading" transform="translate(-50.000000, -42.000000)" fill="#FFFFFF">
            <g id="header">
                <path d="M65.2902127,42.7099901 C64.8363744,42.2552937 64.2209366,42 63.5788737,42 C62.9367888,42 62.3204929,42.2552937 61.8666767,42.7099901 L61.3999439,43.1784392 L61.0810578,42.8655604 C60.3478752,42.1701811 59.2089776,42.1383849 58.4379036,42.7924996 C57.6668956,43.4457627 57.5113254,44.5743402 58.0777596,45.411449 L50.9417714,52.5474372 C50.1260727,53.3579869 49.8776664,54.5794005 50.3117228,55.6434395 L50.0409601,56.6009778 C49.9335176,56.9843364 50.0409601,57.3960585 50.3220208,57.6779773 C50.6039397,57.959038 51.0156617,58.0664849 51.3990203,57.959038 L52.3582749,57.6908498 L52.3582749,57.6899895 C53.4232381,58.1249261 54.6438596,57.8765109 55.4542772,57.0607991 L62.5885051,49.9223904 C63.4257019,50.4931374 64.5585703,50.3401196 65.2136157,49.5673953 C65.8694533,48.794671 65.8359188,47.6523408 65.1362575,46.9191802 L64.8216623,46.6002941 L65.2883951,46.1335613 C65.7422334,45.679723 65.9983852,45.0642853 65.9983852,44.4222224 C65.9992434,43.7801375 65.7439717,43.1638416 65.2901114,42.7100253 L65.2902127,42.7099901 Z M54.5081152,56.1326013 C54.0336589,56.6001923 53.3116324,56.7093555 52.7194092,56.403364 C52.5707087,56.3251453 52.3970905,56.3070952 52.235491,56.3526507 L51.4215087,56.5726935 L51.6415515,55.7561367 C51.6862488,55.5979809 51.6707754,55.4277888 51.5968564,55.2808002 C51.2856939,54.6842861 51.398303,53.9545362 51.8744844,53.4783415 L53.5076201,51.8452058 L58.7886475,51.8452058 L54.5081152,56.1326013 Z M60.1174464,50.5300914 L54.836419,50.5300914 L58.9879666,46.3646811 L61.6284803,49.0051948 L60.1174464,50.5300914 Z M64.2036413,48.769749 C63.9423404,49.0190134 63.5314765,49.0190134 63.2701757,48.769749 L63.0372384,48.5368116 L59.2216961,44.7316114 C58.979297,44.4720269 58.9861843,44.066334 59.2380277,43.8153311 C59.4890085,43.5634922 59.8947234,43.5566048 60.1543079,43.7989996 L60.9313231,44.5760147 L63.4222077,47.0644788 L64.1992228,47.841494 C64.3238573,47.9652681 64.3943392,48.1337328 64.3951973,48.3090849 C64.3951973,48.4852908 64.3255736,48.6546182 64.2009413,48.7783922 L64.2036413,48.769749 Z M64.3600785,45.1914128 L63.8907712,45.665011 L62.3350026,44.1092423 L62.8017354,43.6425095 C63.0063069,43.4302034 63.288228,43.3090126 63.5830633,43.3064381 C63.8787569,43.3038592 64.162392,43.420757 64.3712567,43.6287569 C64.5792653,43.8376259 64.6961719,44.1212787 64.6935754,44.4169502 C64.6909965,44.7117635 64.5698013,44.9937044 64.357504,45.1982782 L64.3600785,45.1914128 Z" id="Page-1"></path>
            </g>
        </g>
    </g>
</svg>