<?xml version="1.0" encoding="UTF-8"?>
<svg width="13px" height="23px" viewBox="0 0 13 23" version="1.1" xmlns="http://www.w3.org/2000/svg" xmlns:xlink="http://www.w3.org/1999/xlink">
    <!-- Generator: Sketch 51.1 (57501) - http://www.bohemiancoding.com/sketch -->
    <title>what’s this?</title>
    <desc>Created with Sketch.</desc>
    <defs></defs>
    <g id="Symbols" stroke="none" stroke-width="1" fill="none" fill-rule="evenodd">
        <g id="question-light" transform="translate(-19.000000, -8.000000)" fill="#FFFFFF">
            <path d="M25.2177391,8.05 C27.0020959,8.05 28.4945447,8.6172407 29.6951304,9.75173913 C30.8957161,10.8862376 31.496,12.2685426 31.496,13.8986957 C31.496,15.3746451 30.890209,16.6743422 29.6786087,17.7978261 L27.0681739,20.0447826 C26.2310683,20.8378301 25.8125217,21.6639087 25.8125217,22.5230435 L23.136,22.5230435 C23.136,21.5757924 23.3287517,20.7221777 23.7142609,19.9621739 C24.09977,19.2021701 24.8707768,18.3705842 26.0273043,17.4673913 C27.1838319,16.5641984 27.9438243,15.8317419 28.3073043,15.27 C28.6707844,14.7082581 28.8525217,14.0418879 28.8525217,13.2708696 C28.8525217,11.9711529 28.3018026,10.9027578 27.2003478,10.0656522 C25.5701947,9.9555067 23.8519511,10.4291251 22.0455652,11.4865217 L21.7151304,14.823913 L19.8316522,14.823913 L19.336,10.1647826 C21.186444,8.75492049 23.1470041,8.05 25.2177391,8.05 Z M24.9203478,26.0917391 C26.352239,26.5984083 27.156289,27.3914439 27.3325217,28.4708696 C27.0020853,29.5723243 26.330208,30.3653599 25.3168696,30.85 C24.1052693,30.6076799 23.2681762,29.9358026 22.8055652,28.8343478 C23.0038271,27.6227476 23.7087476,26.7085538 24.9203478,26.0917391 Z" id="what’s-this?"></path>
        </g>
    </g>
</svg>